<svg xmlns="http://www.w3.org/2000/svg" viewBox="0 0 989.58 235.8"><defs><style>.cls-1{fill:#fff;stroke:#666;stroke-miterlimit:10;stroke-width:1.5px;}</style></defs><g id="레이어_2" data-name="레이어 2"><g id="격리_모드" data-name="격리 모드"><path class="cls-1" d="M231.29,87.22c0,18.43-.27,36.86.15,55.28.2,8.81-3,12.13-12,12.72C180,157.79,180,158,180.05,119.13c0-10.46.7-21-.3-31.35-.51-5.29-4.08-10.28-6.27-15.4-1.9,4.89-5.26,9.72-5.45,14.67-.69,17.9-.91,35.88-.13,53.77.52,12.09-4.26,15.4-15.72,15.08-39.21-1.09-32.29,5.23-33-33.27-.24-13.45.27-26.91-.13-40.34-.59-20-14.91-33.23-34.95-32.92-19.5.3-32.1,13.17-32.21,33.14-.11,19.43-.41,38.86.13,58.27.27,9.84-2.29,14.63-13.22,14.42-45.67-.87-37.46,5.54-37.6-36.19-.07-18.75,1-37.82,4.4-56.19C13.27,22,64-4.53,106.92,8.27c12,3.59,22.48,12.3,34.23,17.32,7.78,3.33,16.58,4.31,24.95,6.25,11.23,2.62,13.48-5,17.21-13.28C188.34,7.37,198.9,3.1,210.83,6c12.33,3,19.79,11.75,20.26,24.46C231.79,49.35,231.27,68.29,231.29,87.22Z"/><path class="cls-1" d="M619.1,54.38c0-8.41-.18-16.84,0-25.25.37-14.19,9.37-23.24,23.24-23.7,14.2-.48,25,7.84,25.26,21.6.6,39.35.28,78.72.32,118.09,0,1,.23,2.25-.26,2.94-10.42,14.59-25.41,4.27-38.09,6.75-7.31,1.43-10.83-2.81-10.54-10.5a227.53,227.53,0,0,0-.16-26.89c-.34-4.25-3-8.32-4.59-12.48-4.17,2.49-10,4-12.22,7.64-10.54,17.3-25.06,29.3-43.71,36.74-31.88,12.7-73.71,3.19-95.53-23.28C444,103.2,438.09,77.58,452.4,49.83,466,23.39,488.77,8.84,517.51,6,554.94,2.27,584.35,16.43,603,50.56c2.08,3.8,8.23,5.38,12.49,8ZM527,110.77c19.46.15,34.9-13.76,34.61-31.16-.27-16.54-15.71-30.29-34.09-30.37-18.83-.08-33.14,13.11-33.21,30.6C494.23,98,507.61,110.63,527,110.77Z"/><path class="cls-1" d="M374.59,161.47c-4.52-.66-9-1.87-13.55-1.89-25.4-.14-50.81.32-76.2-.09a125.72,125.72,0,0,1-29.3-3.57c-4.9-1.28-8.74-6.61-13.07-10.12,4.34-4.12,8.07-9.45,13.19-12,4.56-2.29,10.64-1.93,16.07-2.06,11.39-.26,22.79-.08,34.18-.08l.44-4c-4.74-.46-9.49-.87-14.22-1.38-13.24-1.42-26.73-1.8-39.57-4.88-4.91-1.18-10.64-8.17-11.57-13.31-.59-3.3,6.23-9.29,10.94-11.82,5-2.67,11.37-3.62,17.16-3.66,49.8-.4,99.61-.09,149.41-.79,12.42-.18,16.29,3.82,16.21,16.2s-2.79,18.53-16.6,17.68c-15.86-1-31.83-.23-47.74-.23,0,1.71-.05,3.41-.07,5.12,4.56.38,9.19.36,13.66,1.21,8.72,1.66,18,2.45,25.86,6.05,11.42,5.22,25,10,23.83,26.82-1.12,16.26-14.69,21.3-26.46,24.6-14.6,4.09-30.32,4.95-45.62,5.62-20.16.88-40.39.22-60.93,3.51,3.51.44,7,1.24,10.54,1.24,35.85,0,71.73.57,107.56-.5,15.35-.45,15.08,7.84,15.28,18.64.21,11-1.2,17.53-15.1,17.28-43.81-.79-87.67.5-131.46-.78a67.14,67.14,0,0,1-34.22-11.33c-16.29-11.18-16.2-32.35,0-43.85a67.29,67.29,0,0,1,32.65-11.75c24.78-1.77,49.77-.6,74.67-.77,4.64,0,9.27-.74,13.91-1.13Z"/><path class="cls-1" d="M754.18,5.24c14,0,27.91.39,41.84-.14,9.17-.34,12.65,3.35,12.17,12.24-.4,7.45.15,15-.23,22.41-.16,3.31-.74,7.2-2.64,9.66-2.91,3.77-10.05,6.35-10.27,9.77-1,15.35-.2,30.82,0,46.24,20.08,6.77,11.67,23.69,13.11,37,.93,8.62-2.77,12.81-12,12.7-27.39-.34-54.82.51-82.18-.55-24.23-.94-37.2-15.34-37.46-39.41-.25-23.92-.32-47.84,0-71.75.28-22.57,14.85-37.37,37.34-38.07,13.44-.41,26.9-.07,40.35-.07Zm-4,48.46q-2.1-2.27-4.22-4.52c-5.94,3.36-16.32,6-17,10.22-2.24,13.55-1.72,27.77-.31,41.54.32,3.14,8.28,6.85,13.14,7.58,2.31.34,7.84-5.56,8-8.86C750.64,84.38,750.15,69,750.15,53.7Z"/><path class="cls-1" d="M870.36,51.83c-.89,5-2.49,9.9-2.55,14.87-.3,24.41-.54,48.84-.06,73.24.2,10.45-2.52,15.13-14.11,15.35-37.44.71-37.43,1.14-37.38-36.52,0-18.93-.17-37.87.06-56.8.39-32.65,23.15-56,54.94-56.59C904.34,4.74,929.69,27,930.8,59.29c1,27.87,0,55.8.32,83.7.1,9.2-4,11.76-12.62,12.22-38.83,2.12-38.83,2.32-38.87-36.74,0-17.44.32-34.89-.13-52.32-.12-5-2.42-9.88-3.72-14.82Z"/><path class="cls-1" d="M336.87.77c23.5,5.53,46.23,9.87,68.25,16.57,8.39,2.55,16,9.7,22.43,16.22,7.57,7.64,7,16.71.41,25.6C416.42,74.82,399,79.77,381.73,84c-37.56,9.24-74.81,8-110.93-7.32a49.24,49.24,0,0,1-8-4c-10.08-6.63-21.22-13.55-19.94-27.36,1.32-14.26,12-23.51,24.57-27.37C289.9,11.09,313.08,6.53,336.87.77Zm.07,63.87c10.3-2.48,20.55-4.17,30.14-7.67,3.88-1.41,9.18-7.22,8.72-10.24-.68-4.39-5.78-11.26-9.37-11.5a479.46,479.46,0,0,0-57.24-.44c-3.44.18-8.45,7.16-9.11,11.54-.48,3.18,4.32,9.11,8,10.56C317.15,60.44,326.92,62.09,336.94,64.64Z"/><path class="cls-1" d="M988.83,133c.19,12.59-10.23,22.77-23.78,23.24-13.78.49-26-10.08-26.21-22.59s10.4-22.63,24-23.19C976.92,109.85,988.63,120,988.83,133Z"/></g></g></svg>